PathFileType	4	(X/Y/Z)	TVC_12_BWA1_walk_RCNL2025.trc
DataRate	CameraRate	NumFrames	NumMarkers	Units	OrigDataRate	OrigDataStartFrame	OrigNumFrames
100	100	8	27	mm	100	176	468
Frame#	Time	R_Shoulder			L_Shoulder			C7			J_Notch			R_Elbow			L_Elbow			R_Wrist			L_Wrist			R_Asis			L_Asis			R_Psis			L_Psis			Sacral			Thoracic			Sternum			R_Thigh_Lateral			R_Knee_Lateral			R_Shank_Lateral			R_Ankle_Lateral			R_Heel			R_Toe			L_Thigh_Lateral			L_Knee_Lateral			L_Shank_Lateral			L_Ankle_Lateral			L_Heel			L_Toe		
		X1	Y1	Z1	X2	Y2	Z2	X3	Y3	Z3	X4	Y4	Z4	X5	Y5	Z5	X6	Y6	Z6	X7	Y7	Z7	X8	Y8	Z8	X9	Y9	Z9	X10	Y10	Z10	X11	Y11	Z11	X12	Y12	Z12	X13	Y13	Z13	X14	Y14	Z14	X15	Y15	Z15	X16	Y16	Z16	X17	Y17	Z17	X18	Y18	Z18	X19	Y19	Z19	X20	Y20	Z20	X21	Y21	Z21	X22	Y22	Z22	X23	Y23	Z23	X24	Y24	Z24	X25	Y25	Z25	X26	Y26	Z26	X27	Y27	Z27
176	1.75000000	-675.222961	1344.360718	437.415283	-667.821716	1360.613770	20.220549	-779.881836	1424.181274	231.472580	-625.694336	1308.945557	231.951309	-798.101440	1027.380493	492.476624	-824.550964	1056.253052	-51.488518	-749.114136	782.892334	451.033936	-790.024811	817.446564	-18.330515	-718.330811	916.843262	386.548340	-708.008179	924.791199	39.439762	-892.474182	962.722900	272.205963	-892.573181	963.080933	163.806335	-892.523682	962.901917	218.006149	-872.866821	1176.582642	215.728958	-543.318481	1115.484863	218.282318	-708.940125	608.708130	406.353149	-673.517334	483.861938	351.229218	-707.080322	265.247864	383.817383	-710.736938	57.184029	313.655975	-746.218689	55.931099	251.713882	-573.151978	45.091713	305.879303	-727.565125	599.722900	-31.625805	-722.153015	467.167633	20.048603	-879.752625	349.137360	-11.369432	-1021.633667	191.942764	69.008698	-1055.298950	206.343491	129.454788	-949.523926	66.050201	73.173820
177	1.76000000	-669.806885	1344.105347	438.495209	-662.781128	1360.551758	21.313915	-774.562317	1424.385620	232.676300	-620.686768	1308.787109	232.973282	-792.111023	1027.039795	494.090668	-819.624695	1055.979248	-49.772339	-741.667419	782.735382	453.839111	-784.166656	817.628296	-15.967299	-714.381592	916.782288	388.044220	-703.518494	924.925781	40.392460	-888.168030	963.130249	273.207428	-888.122437	963.343933	164.793961	-888.145233	963.237091	219.000694	-868.117676	1176.965820	216.875031	-538.767029	1115.140503	219.138474	-704.627014	609.015930	407.401672	-670.854126	483.637512	351.854156	-705.729187	265.132050	383.983154	-710.646667	57.189899	313.643524	-746.091919	56.038452	251.654984	-573.221130	45.085194	305.894104	-719.442017	600.141541	-30.387659	-709.097107	467.903229	21.334248	-865.889038	349.861877	-9.453382	-1007.797180	193.052322	71.165787	-1041.883667	207.591019	131.398758	-934.188477	68.115860	75.911980
178	1.77000000	-664.505554	1343.957275	439.492371	-657.834839	1360.599854	22.324886	-769.335693	1424.629150	233.784241	-615.750549	1308.689331	233.919250	-786.183716	1026.789673	495.582703	-814.779236	1055.810425	-48.129669	-734.350708	782.668640	456.541718	-778.069214	818.029175	-13.905439	-710.463806	916.775513	389.446960	-699.031860	925.178894	41.334213	-883.893677	963.581421	274.129028	-883.711975	963.666199	165.695114	-883.802826	963.623810	219.912071	-863.416870	1177.375854	217.935287	-534.251770	1114.889526	219.951859	-700.661255	609.252625	408.263184	-668.359436	483.432495	352.358032	-704.478333	265.051025	384.091705	-710.563049	57.210606	313.627258	-745.996948	56.129704	251.600555	-573.289185	45.084595	305.889526	-711.778503	600.554688	-29.038643	-696.193359	468.921631	22.781921	-851.765686	350.241455	-7.581843	-993.382935	193.412491	73.286095	-1028.025635	208.098145	133.204224	-917.793335	69.785027	78.921448
179	1.78000000	-659.322266	1343.920898	440.407257	-652.969116	1360.757446	23.257427	-764.198608	1424.916626	234.799454	-610.874451	1308.659912	234.796478	-780.315308	1026.636719	496.963043	-810.013000	1055.759399	-46.566296	-727.162018	782.694733	459.125092	-771.694580	818.665039	-12.187871	-706.556091	916.813354	390.745483	-694.559692	925.542725	42.250259	-879.637817	964.079346	274.975677	-879.337646	964.049194	166.520950	-879.487732	964.064270	220.748314	-858.762573	1177.819580	218.914062	-529.761536	1114.734741	220.732285	-697.080994	609.415771	408.946503	-666.030701	483.247314	352.754211	-703.319458	264.993378	384.152100	-710.488220	57.244175	313.607178	-745.933167	56.205227	251.552490	-573.359863	45.088100	305.873627	-704.433350	600.943420	-27.575060	-683.427856	470.213348	24.397356	-837.435547	350.290649	-5.745289	-978.403748	193.030197	75.399567	-1013.746399	207.832291	134.908035	-900.448181	71.054543	82.171783
180	1.79000000	-654.258362	1343.997803	441.241394	-648.171814	1361.013306	24.112934	-759.146484	1425.249023	235.724411	-606.048035	1308.702515	235.610840	-774.509277	1026.584595	498.243103	-805.336121	1055.826904	-45.089405	-720.098633	782.815308	461.576233	-765.055298	819.530121	-10.826909	-702.635620	916.892334	391.931824	-690.106995	926.008240	43.120293	-875.387573	964.623230	275.750122	-874.993042	964.489746	167.279312	-875.190308	964.556488	221.514717	-854.152100	1178.298462	219.814560	-525.289734	1114.672607	221.485977	-693.893311	609.511658	409.467865	-663.857117	483.079254	353.058258	-702.233032	264.944733	384.170837	-710.423706	57.287663	313.582733	-745.896057	56.267132	251.511047	-573.437683	45.094345	305.855164	-697.273071	601.299072	-26.004513	-670.769897	471.753326	26.178061	-822.962463	350.043152	-3.921650	-962.878357	191.930786	77.533295	-999.048035	206.765366	136.554001	-882.281677	71.927620	85.633453
181	1.80000000	-649.311584	1344.186890	441.998016	-643.435913	1361.349243	24.891584	-754.173523	1425.620728	236.561310	-601.262634	1308.816650	236.365967	-768.774719	1026.632812	499.433807	-800.757690	1056.002197	-43.709850	-713.159424	783.031769	463.886826	-758.249146	820.584717	-9.783465	-698.680176	917.015076	392.999939	-685.669678	926.568726	43.926060	-871.133972	965.207397	276.456360	-870.669922	964.980469	167.976349	-870.901947	965.093933	222.216354	-849.579407	1178.806396	220.639832	-520.832214	1114.696777	222.214493	-691.075256	609.552002	409.847198	-661.822144	482.924347	353.284058	-701.198547	264.894501	384.152435	-710.369690	57.338589	313.552399	-745.879395	56.319031	251.474442	-573.526367	45.102116	305.841675	-690.192566	601.625000	-24.346531	-658.181274	473.497986	28.096884	-808.408203	349.534088	-2.087191	-946.834839	190.154846	79.706528	-983.915405	204.890747	138.189743	-863.403381	72.421669	89.260895
182	1.81000000	-644.474304	1344.482422	442.683228	-638.755188	1361.743896	25.593111	-749.273376	1426.020752	237.311615	-596.511292	1308.998901	237.064102	-763.123108	1026.774780	500.543243	-796.274292	1056.270264	-42.442223	-706.344818	783.341888	466.052963	-751.474518	821.747681	-8.962735	-694.672363	917.186340	393.944672	-681.239136	927.216003	44.654816	-866.872437	965.822754	277.099609	-866.358826	965.510376	168.617203	-866.615631	965.666565	222.858406	-845.034668	1179.330566	221.393875	-516.383728	1114.800293	222.914978	-688.577515	609.550171	410.104858	-659.906616	482.777954	353.441803	-700.201843	264.839447	384.099152	-710.325317	57.395020	313.512726	-745.876526	56.365173	251.438660	-573.625854	45.110634	305.836700	-683.116638	601.939026	-22.632160	-645.650269	475.392792	30.093853	-793.824219	348.786438	-0.224233	-930.303040	187.754776	81.927292	-968.327881	202.232010	139.862198	-843.889587	72.570686	92.988327
183	1.82000000	-639.732971	1344.871338	443.306519	-634.119263	1362.175049	26.217733	-744.440430	1426.436401	237.976379	-591.788452	1309.241943	237.705688	-757.565857	1026.999756	501.575928	-791.870667	1056.617920	-41.302254	-699.655579	783.737915	468.073013	-744.988068	822.910217	-8.241122	-690.599060	917.407471	394.762787	-676.811035	927.933228	45.302219	-862.599243	966.457092	277.682068	-862.049622	966.065308	169.206024	-862.324432	966.261200	223.444046	-840.506348	1179.855591	222.082932	-511.939362	1114.974365	223.580032	-686.330444	609.519104	410.259888	-658.091553	482.635437	353.537415	-699.236450	264.782867	384.010925	-710.288818	57.454632	313.458313	-745.880188	56.409069	251.397964	-573.730469	45.119625	305.837769	-675.987427	602.269775	-20.903446	-633.233093	477.391602	32.089062	-779.245605	347.808380	1.672463	-913.306824	184.788254	84.192528	-952.267578	198.836365	141.609116	-823.792053	72.419518	96.738029
